<svg xmlns="http://www.w3.org/2000/svg" viewBox="0 0 247.98 216.59"><defs><style>.cls-1{fill:#fff;}</style></defs><g id="Layer_2" data-name="Layer 2"><g id="Layer_1-2" data-name="Layer 1"><path class="cls-1" d="M125.8,8h0M124,11.09l113.45,196.5H10.54L124,11.09M124,0a6.84,6.84,0,0,0-6,3.45L.94,206.23a6.91,6.91,0,0,0,6,10.36H241.06a6.91,6.91,0,0,0,6-10.36L130,3.45A6.84,6.84,0,0,0,124,0Z"/><path class="cls-1" d="M131.86,52.09l-3.11,105a4.5,4.5,0,0,1-9,0l-3.1-105a7.61,7.61,0,1,1,15.21-.45Z"/><circle class="cls-1" cx="124.25" cy="185.09" r="8"/></g></g></svg>